<svg width="19" height="19" viewBox="0 0 19 19" fill="none" xmlns="http://www.w3.org/2000/svg">
<g clip-path="url(#clip0_347_54)">
<path d="M0.791667 15.2396H2.95767C3.12759 14.6144 3.49851 14.0625 4.01322 13.669C4.52792 13.2755 5.1578 13.0623 5.80569 13.0623C6.45357 13.0623 7.08345 13.2755 7.59816 13.669C8.11286 14.0625 8.48379 14.6144 8.65371 15.2396H18.2083C18.4183 15.2396 18.6197 15.323 18.7681 15.4715C18.9166 15.62 19 15.8213 19 16.0313C19 16.2413 18.9166 16.4426 18.7681 16.5911C18.6197 16.7395 18.4183 16.823 18.2083 16.823H8.65371C8.48379 17.4482 8.11286 18.0001 7.59816 18.3936C7.08345 18.7871 6.45357 19.0002 5.80569 19.0002C5.1578 19.0002 4.52792 18.7871 4.01322 18.3936C3.49851 18.0001 3.12759 17.4482 2.95767 16.823H0.791667C0.581704 16.823 0.38034 16.7395 0.231874 16.5911C0.0834075 16.4426 0 16.2413 0 16.0313C0 15.8213 0.0834075 15.62 0.231874 15.4715C0.38034 15.323 0.581704 15.2396 0.791667 15.2396ZM5.80529 17.4167C6.0793 17.4167 6.34716 17.3355 6.57499 17.1832C6.80282 17.031 6.98039 16.8146 7.08525 16.5615C7.19011 16.3083 7.21755 16.0298 7.16409 15.761C7.11063 15.4923 6.97868 15.2454 6.78493 15.0517C6.59118 14.8579 6.34432 14.7259 6.07557 14.6725C5.80683 14.619 5.52827 14.6465 5.27512 14.7513C5.02196 14.8562 4.80559 15.0338 4.65336 15.2616C4.50113 15.4894 4.41988 15.7573 4.41988 16.0313C4.42029 16.3986 4.56639 16.7507 4.82612 17.0105C5.08584 17.2702 5.43799 17.4163 5.80529 17.4167Z" fill="white"/>
<path d="M18.2083 10.2917H16.0423C15.8727 10.917 15.5019 11.4691 14.9873 11.8628C14.4726 12.2564 13.8427 12.4697 13.1947 12.4697C12.5468 12.4697 11.9168 12.2564 11.4022 11.8628C10.8875 11.4691 10.5167 10.917 10.3471 10.2917H0.791667C0.581704 10.2917 0.38034 10.2083 0.231874 10.0598C0.0834075 9.91133 0 9.70996 0 9.5C0 9.29004 0.0834075 9.08867 0.231874 8.94021C0.38034 8.79174 0.581704 8.70833 0.791667 8.70833H10.3471C10.5167 8.08298 10.8875 7.53086 11.4022 7.13721C11.9168 6.74356 12.5468 6.53027 13.1947 6.53027C13.8427 6.53027 14.4726 6.74356 14.9873 7.13721C15.5019 7.53086 15.8727 8.08298 16.0423 8.70833H18.2083C18.4183 8.70833 18.6197 8.79174 18.7681 8.94021C18.9166 9.08867 19 9.29004 19 9.5C19 9.70996 18.9166 9.91133 18.7681 10.0598C18.6197 10.2083 18.4183 10.2917 18.2083 10.2917ZM13.1947 8.11458C12.9207 8.11458 12.6528 8.19584 12.425 8.34807C12.1972 8.5003 12.0196 8.71667 11.9148 8.96982C11.8099 9.22298 11.7825 9.50154 11.8359 9.77028C11.8894 10.039 12.0213 10.2859 12.2151 10.4796C12.4088 10.6734 12.6557 10.8053 12.9244 10.8588C13.1932 10.9123 13.4717 10.8848 13.7249 10.78C13.978 10.6751 14.1944 10.4975 14.3466 10.2697C14.4989 10.0419 14.5801 9.77401 14.5801 9.5C14.5797 9.13269 14.4336 8.78055 14.1739 8.52082C13.9142 8.2611 13.562 8.115 13.1947 8.11458Z" fill="white"/>
<path d="M18.2083 3.76039H8.65371C8.48379 4.3856 8.11286 4.93752 7.59816 5.33101C7.08345 5.72449 6.45357 5.93768 5.80569 5.93768C5.1578 5.93768 4.52792 5.72449 4.01322 5.33101C3.49851 4.93752 3.12759 4.3856 2.95767 3.76039H0.791667C0.581704 3.76039 0.38034 3.67699 0.231874 3.52852C0.0834075 3.38005 0 3.17869 0 2.96873C0 2.75876 0.0834075 2.5574 0.231874 2.40893C0.38034 2.26047 0.581704 2.17706 0.791667 2.17706H2.95767C3.12759 1.55186 3.49851 0.999937 4.01322 0.606449C4.52792 0.212962 5.1578 -0.000227928 5.80569 -0.000227928C6.45357 -0.000227928 7.08345 0.212962 7.59816 0.606449C8.11286 0.999937 8.48379 1.55186 8.65371 2.17706H18.2083C18.4183 2.17706 18.6197 2.26047 18.7681 2.40893C18.9166 2.5574 19 2.75876 19 2.96873C19 3.17869 18.9166 3.38005 18.7681 3.52852C18.6197 3.67699 18.4183 3.76039 18.2083 3.76039ZM5.80529 1.58331C5.53128 1.58331 5.26343 1.66456 5.0356 1.8168C4.80777 1.96903 4.63019 2.1854 4.52533 2.43855C4.42048 2.6917 4.39304 2.97026 4.4465 3.23901C4.49995 3.50775 4.6319 3.75461 4.82565 3.94836C5.01941 4.14212 5.26627 4.27407 5.53501 4.32752C5.80375 4.38098 6.08232 4.35354 6.33547 4.24869C6.58862 4.14383 6.80499 3.96625 6.95722 3.73842C7.10946 3.51059 7.19071 3.24274 7.19071 2.96873C7.19008 2.60149 7.04392 2.24946 6.78424 1.98978C6.52456 1.7301 6.17253 1.58394 5.80529 1.58331Z" fill="white"/>
</g>
<defs>
<clipPath id="clip0_347_54">
<rect width="19" height="19" fill="white" transform="matrix(1 0 0 -1 0 19)"/>
</clipPath>
</defs>
</svg>
