<svg width="19" height="19" viewBox="0 0 19 19" fill="none" xmlns="http://www.w3.org/2000/svg">
<g clip-path="url(#clip0_347_51)">
<path d="M14.2501 9.5C14.2501 9.937 13.8954 10.2917 13.4584 10.2917C13.0214 10.2917 12.6668 9.937 12.6668 9.5C12.6668 9.063 13.0214 8.70833 13.4584 8.70833C13.8954 8.70833 14.2501 9.063 14.2501 9.5ZM5.54175 3.95833C5.97875 3.95833 6.33342 3.60446 6.33342 3.16667C6.33342 2.29346 7.04355 1.58333 7.91675 1.58333C8.78996 1.58333 9.50009 2.29346 9.50009 3.16667C9.50009 3.60446 9.85475 3.95833 10.2918 3.95833C10.7288 3.95833 11.0834 3.60446 11.0834 3.16667C11.0834 1.42025 9.66317 0 7.91675 0C6.17034 0 4.75009 1.42025 4.75009 3.16667C4.75009 3.60446 5.10475 3.95833 5.54175 3.95833ZM19.0001 10.2917V11.875C19.0001 12.7506 18.4079 13.2834 17.7588 13.4219C17.2355 14.7313 16.2768 15.8373 15.0418 16.5522V16.625C15.0418 17.9344 13.9762 19 12.6668 19C11.6344 19 10.7541 18.3382 10.4271 17.4167H8.57225C8.2453 18.3382 7.36496 19 6.33263 19C5.02321 19 3.95763 17.9344 3.95763 16.625V16.5625C1.87159 15.3599 0.64688 13.0973 0.804421 10.6638C0.854296 9.8895 1.04984 9.15404 1.36255 8.48192C0.557421 8.10112 -0.00149536 7.28175 -0.00149536 6.33333C-0.00149536 5.02392 1.06409 3.95833 2.3735 3.95833C2.8105 3.95833 3.16517 4.31221 3.16517 4.75C3.16517 5.18779 2.8105 5.54167 2.3735 5.54167C1.9365 5.54167 1.58184 5.89633 1.58184 6.33333C1.58184 6.72204 1.86367 7.04583 2.23338 7.11233C3.4375 5.66913 5.28367 4.75 7.33409 4.75H11.5798C12.1601 3.57992 13.2439 2.76133 14.6887 2.41775C15.1565 2.30771 15.641 2.41538 16.0195 2.71383C16.4034 3.01783 16.6243 3.47225 16.6243 3.9615V6.90254C17.1056 7.44958 17.4904 8.075 17.758 8.74475C18.4079 8.88329 18.9993 9.41608 18.9993 10.2917H19.0001ZM17.4168 10.2917H17.184C16.8341 10.2917 16.5253 10.0613 16.4256 9.72563C16.2087 8.99729 15.8081 8.31962 15.2674 7.76467C15.1225 7.61662 15.0418 7.41792 15.0418 7.21208V3.9615C14.2699 4.14517 13.2486 4.61858 12.8536 5.81004C12.742 6.14492 12.4158 6.37529 12.0698 6.35154C12.016 6.34917 7.33567 6.33413 7.33567 6.33413C4.7208 6.33413 2.54609 8.28083 2.38538 10.7667C2.25871 12.7213 3.32034 14.5287 5.0905 15.3702C5.3668 15.5016 5.54175 15.7803 5.54175 16.0851V16.6258C5.54175 17.0628 5.89721 17.4175 6.33342 17.4175C6.76963 17.4175 7.12509 17.0628 7.12509 16.6258C7.12509 16.1888 7.47975 15.8341 7.91675 15.8341H11.0834C11.5204 15.8341 11.8751 16.188 11.8751 16.6258C11.8751 17.0636 12.2305 17.4175 12.6668 17.4175C13.103 17.4175 13.4584 17.0628 13.4584 16.6258V16.0764C13.4584 15.7716 13.6334 15.4937 13.9089 15.3623C15.1296 14.7796 16.0464 13.7148 16.4256 12.4426C16.5253 12.107 16.8341 11.8766 17.184 11.8766H17.4168V10.2933V10.2917Z" fill="#FFBC58"/>
</g>
<defs>
<clipPath id="clip0_347_51">
<rect width="19" height="19" fill="white"/>
</clipPath>
</defs>
</svg>
