<svg width="19" height="20" viewBox="0 0 19 20" fill="none" xmlns="http://www.w3.org/2000/svg">
<path d="M15.0417 2.56284H9.87367C9.75123 2.56373 9.63021 2.53419 9.51979 2.47648L7.02129 1.10848C6.69148 0.929315 6.32811 0.835905 5.95967 0.835571H3.95833C2.9089 0.836943 1.90282 1.29233 1.16076 2.10185C0.418698 2.91137 0.00125705 4.00892 0 5.15375L0 15.5174C0.00125705 16.6622 0.418698 17.7598 1.16076 18.5693C1.90282 19.3788 2.9089 19.8342 3.95833 19.8356H15.0417C16.0911 19.8342 17.0972 19.3788 17.8392 18.5693C18.5813 17.7598 18.9987 16.6622 19 15.5174V6.88103C18.9987 5.73619 18.5813 4.63864 17.8392 3.82912C17.0972 3.01961 16.0911 2.56422 15.0417 2.56284ZM3.95833 2.56284H5.95967C6.0821 2.56196 6.20312 2.5915 6.31354 2.64921L8.81204 4.01289C9.14153 4.19355 9.50491 4.28844 9.87367 4.29012H15.0417C15.5151 4.29096 15.9775 4.44615 16.3695 4.73576C16.7616 5.02538 17.0653 5.4362 17.2417 5.91548L1.58333 6.01221V5.15375C1.58333 4.4666 1.83356 3.80759 2.27895 3.3217C2.72435 2.83581 3.32844 2.56284 3.95833 2.56284ZM15.0417 18.1083H3.95833C3.32844 18.1083 2.72435 17.8353 2.27895 17.3494C1.83356 16.8636 1.58333 16.2045 1.58333 15.5174V7.73948L17.4167 7.64189V15.5174C17.4167 16.2045 17.1664 16.8636 16.721 17.3494C16.2756 17.8353 15.6716 18.1083 15.0417 18.1083Z" fill="white"/>
</svg>
