<svg width="19" height="19" viewBox="0 0 19 19" fill="none" xmlns="http://www.w3.org/2000/svg">
<path d="M0.222047 17.6595L4.94363 12.9379C3.65694 11.3642 3.02432 9.35622 3.17662 7.32922C3.32892 5.30222 4.25448 3.41129 5.76187 2.04757C7.26925 0.683849 9.24313 -0.0483305 11.2752 0.00247793C13.3073 0.0532864 15.2421 0.883195 16.6795 2.32054C18.1168 3.75789 18.9467 5.69271 18.9975 7.72479C19.0483 9.75687 18.3162 11.7307 16.9524 13.2381C15.5887 14.7455 13.6978 15.6711 11.6708 15.8234C9.64378 15.9757 7.63578 15.3431 6.06212 14.0564L1.34055 18.778C1.19136 18.922 0.991545 19.0018 0.784143 19C0.576741 18.9982 0.378345 18.915 0.231684 18.7683C0.0850228 18.6217 0.00183223 18.4233 2.99608e-05 18.2159C-0.00177231 18.0085 0.0779573 17.8086 0.222047 17.6595ZM11.0645 14.2636C12.3161 14.2636 13.5396 13.8925 14.5802 13.1971C15.6209 12.5018 16.432 11.5135 16.9109 10.3572C17.3899 9.20084 17.5152 7.92847 17.2711 6.70093C17.0269 5.47339 16.4242 4.34583 15.5392 3.46082C14.6542 2.57581 13.5266 1.97312 12.2991 1.72895C11.0715 1.48477 9.79916 1.61009 8.64284 2.08905C7.48653 2.56801 6.49821 3.37911 5.80286 4.41976C5.10752 5.46042 4.73638 6.6839 4.73638 7.93549C4.73826 9.61323 5.40558 11.2217 6.59193 12.4081C7.77828 13.5944 9.38677 14.2617 11.0645 14.2636Z" fill="white"/>
</svg>
