<svg width="19" height="20" viewBox="0 0 19 20" fill="none" xmlns="http://www.w3.org/2000/svg">
<path d="M15.0417 2.56283H9.87367C9.75123 2.56371 9.63021 2.53418 9.51979 2.47647L7.02129 1.10847C6.69148 0.9293 6.32811 0.83589 5.95967 0.835556H3.95833C2.9089 0.836927 1.90282 1.29232 1.16076 2.10184C0.418698 2.91136 0.00125705 4.00891 0 5.15374L0 15.5174C0.00125705 16.6622 0.418698 17.7598 1.16076 18.5693C1.90282 19.3788 2.9089 19.8342 3.95833 19.8356H15.0417C16.0911 19.8342 17.0972 19.3788 17.8392 18.5693C18.5813 17.7598 18.9987 16.6622 19 15.5174V6.88101C18.9987 5.73618 18.5813 4.63863 17.8392 3.82911C17.0972 3.01959 16.0911 2.5642 15.0417 2.56283V2.56283ZM3.95833 2.56283H5.95967C6.0821 2.56195 6.20312 2.59148 6.31354 2.64919L8.81204 4.01287C9.14153 4.19353 9.50491 4.28843 9.87367 4.2901H15.0417C15.5151 4.29094 15.9775 4.44613 16.3695 4.73575C16.7616 5.02536 17.0653 5.43618 17.2417 5.91547L1.58333 6.01219V5.15374C1.58333 4.46659 1.83356 3.80758 2.27895 3.32169C2.72435 2.8358 3.32844 2.56283 3.95833 2.56283V2.56283ZM15.0417 18.1083H3.95833C3.32844 18.1083 2.72435 17.8353 2.27895 17.3494C1.83356 16.8635 1.58333 16.2045 1.58333 15.5174V7.73947L17.4167 7.64187V15.5174C17.4167 16.2045 17.1664 16.8635 16.721 17.3494C16.2756 17.8353 15.6716 18.1083 15.0417 18.1083Z" fill="#6A8AC8"/>
</svg>
