<svg width="14" height="14" viewBox="0 0 14 14" fill="none" xmlns="http://www.w3.org/2000/svg">
<path d="M10.7917 14H3.20832C1.43721 13.9981 0.00194141 12.5628 0 10.7917V3.20832C0.00194141 1.43721 1.43721 0.00194141 3.20832 0H10.7916C12.5628 0.00194141 13.9981 1.43721 14 3.20832V10.7916C13.9981 12.5628 12.5628 13.9981 10.7917 14ZM3.20832 1.75C2.40291 1.75 1.75 2.40291 1.75 3.20832V10.7916C1.75 11.5971 2.40291 12.25 3.20832 12.25H10.7916C11.5971 12.25 12.25 11.5971 12.25 10.7917V3.20832C12.25 2.40291 11.5971 1.75 10.7917 1.75H3.20832Z" fill="#323232"/>
</svg>
